<svg xmlns="http://www.w3.org/2000/svg" aria-hidden="true" style="position:absolute;width:0;height:0;overflow:hidden">
  <defs>
    <symbol id="mob-menu-close" viewBox="0 0 32 32">
      <path d="M7.494 6.58c-.564.266-1.04.918-1.04 1.42 0 .548-.01.538 3.858 4.414L13.89 16l-3.604 3.614c-2.718 2.724-3.632 3.672-3.718 3.856-.246.524-.11 1.074.39 1.572.498.5 1.048.636 1.572.39.184-.086 1.132-1 3.856-3.718L16 18.108l3.614 3.606c2.724 2.718 3.672 3.632 3.856 3.718.524.246 1.074.11 1.572-.39.5-.498.636-1.048.39-1.572-.086-.184-1-1.132-3.718-3.856L18.11 16l3.582-3.586c3.87-3.878 3.854-3.858 3.854-4.414 0-.694-.852-1.546-1.546-1.546-.556 0-.536-.016-4.414 3.854L16 13.89l-3.586-3.582c-3.058-3.052-3.63-3.602-3.88-3.718a1.125 1.125 0 0 0-1.047-.007l.006-.003z"/>
    </symbol>
    <symbol id="mob-scroll" viewBox="0 0 32 32">
      <path d="M7.56 11.432a1.344 1.344 0 0 0-.811 1.703l-.003-.009c.088.272.27.464 3.22 3.426 1.72 1.728 3.304 3.282 3.52 3.456.458.368.838.572 1.396.746.574.182 1.658.182 2.238.002a4.428 4.428 0 0 0 1.414-.758c.176-.142 1.738-1.68 3.474-3.42 2.976-2.988 3.158-3.18 3.246-3.452a1.322 1.322 0 0 0-1.4-1.749l.006-.001a1.57 1.57 0 0 0-.464.122l.01-.004c-.098.05-1.644 1.55-3.432 3.336-2.252 2.244-3.316 3.27-3.452 3.328a1.745 1.745 0 0 1-1.056-.004l.012.003c-.136-.058-1.2-1.084-3.452-3.328-1.788-1.786-3.336-3.288-3.436-3.338a1.648 1.648 0 0 0-1.041-.057l.012-.003z" />
    </symbol>
    <symbol id="mob-twitter" viewBox="0 0 32 32">
      <path d="M21.213 2.829a7.168 7.168 0 0 0-4.282 2.05c-1.315 1.315-2.104 3.117-2.104 4.814v.44h-.21c-1.051 0-3.234-.578-4.522-1.197-1.688-.811-3.155-2.16-4.853-4.462-.568-.77-.768-.922-1.19-.914-.533.01-.973.347-1.218.936-.485 1.163-.947 3.179-1.126 4.906-.077.739-.08 2.456-.005 3.211.41 4.12 2.392 7.4 5.872 9.717.293.195.531.371.531.394 0 .061-1.07.493-1.814.733-1.384.446-2.576.638-4.24.685-.586.016-1.142.051-1.237.08-.427.13-.653.498-.654 1.066-.003.645.179.874 1.066 1.342 3.899 2.067 8.326 2.874 12.522 2.282 4.726-.667 8.981-3.165 11.731-6.886 2.398-3.245 3.693-7.355 3.693-11.733v-.989l.354-.424a11.725 11.725 0 0 0 2.237-4.34l.019-.083c.141-.541.139-.75-.01-1.045-.176-.349-.515-.541-1.018-.573-.442-.027-.466-.019-1.195.451-.557.366-1.2.719-1.871 1.02l-.089.036c-.784.341-.747.341-1.123.035a7.267 7.267 0 0 0-5.295-1.549l.031-.003zm1.493 2.424c1.05.171 1.787.547 2.638 1.347.803.755.918.779 1.998.413.389-.131.722-.24.738-.24.066 0-.301.474-.738.952-.25.275-.493.578-.539.675-.091.194-.102.586-.034 1.173.054.464-.019 2.176-.133 3.067-.821 6.514-4.734 11.411-10.632 13.304-2.579.829-5.419.986-8.274.461a16.352 16.352 0 0 1-1.663-.388l.119.03c-.045-.016.205-.11.555-.211 1.57-.454 3.934-1.598 4.712-2.282.259-.256.424-.607.438-.996v-.003c0-.525-.179-.702-1.264-1.24-1.493-.742-2.578-1.488-3.526-2.429-1.925-1.904-2.878-4.146-3.078-7.234-.064-.978.064-2.317.387-4.093.016-.08.043-.147.062-.147s.24.235.491.52c1.142 1.301 2.496 2.366 3.891 3.059 1.886.939 3.667 1.403 5.928 1.546 1.382.088 1.886.006 2.168-.352.182-.234.213-.435.24-1.678.03-1.288.082-1.648.333-2.275.259-.65.554-1.083 1.115-1.645.608-.61 1.053-.888 1.819-1.144.835-.278 1.403-.326 2.246-.19z"/>
    </symbol>
    <symbol id="mob-insta" viewBox="0 0 32 32">
      <path d="M8.084 1.684A7.794 7.794 0 0 0 1.911 7.11l-.014.055C1.593 8.215 1.6 8.003 1.6 16s-.007 7.785.297 8.835c.76 2.545 2.724 4.508 5.213 5.254l.055.014c1.05.304.838.297 8.835.297s7.785.007 8.835-.297c2.545-.76 4.508-2.724 5.254-5.213l.014-.055c.304-1.05.297-.838.297-8.835s.007-7.785-.297-8.835c-.76-2.545-2.724-4.508-5.213-5.254l-.055-.014c-1.053-.304-.826-.297-8.9-.291-5.911.006-7.514.022-7.85.079zm15.072 2.104a5.455 5.455 0 0 1 3.32 1.493l-.002-.002a5.518 5.518 0 0 1 1.737 3.544l.002.021c.073.768.073 13.545 0 14.313a5.455 5.455 0 0 1-1.493 3.32l.002-.002a5.518 5.518 0 0 1-3.544 1.737l-.021.002c-.768.073-13.545.073-14.313 0a5.523 5.523 0 0 1-3.562-1.735l-.003-.003a5.444 5.444 0 0 1-1.49-3.298l-.001-.02c-.073-.768-.073-13.545 0-14.313a5.455 5.455 0 0 1 1.493-3.32l-.002.002c.913-.972 2.189-1.61 3.468-1.734.676-.065 13.724-.07 14.41-.004zM22.8 7.67c-.384.183-.561.502-.559 1.008.003.698.401 1.088 1.104 1.078.735-.009 1.081-.356 1.081-1.084 0-.452-.127-.748-.401-.934-.266-.18-.913-.215-1.225-.068zm-7.2 1.854a6.656 6.656 0 0 0-2.428.684l.038-.018c-2.134 1.06-3.574 3.225-3.574 5.726 0 .204.01.406.028.605l-.002-.025a6.231 6.231 0 0 0 1.058 3.02l-.014-.022a6.496 6.496 0 0 0 4.321 2.796l.038.005c.534.084 1.632.071 2.131-.026 2.652-.512 4.672-2.516 5.185-5.145.116-.592.116-1.743.001-2.324-.273-1.383-.82-2.419-1.792-3.392a6.178 6.178 0 0 0-3.3-1.773l-.038-.006a8.556 8.556 0 0 0-1.667-.104h.014zm1.251 2.269c.809.127 1.599.556 2.243 1.216 1.956 2.009 1.42 5.377-1.062 6.665-.72.372-1.094.46-1.978.46-.662 0-.832-.019-1.174-.125a4.329 4.329 0 0 1-2.872-2.832L12 17.146c-.169-.532-.207-1.516-.081-2.086.217-.992.835-1.955 1.604-2.505 1.018-.726 2.052-.963 3.328-.762z"/>
    </symbol>
    <symbol id="mob-logo" viewBox="0 0 31 32">
      <path d="M13.821 6.554c-.228.344-.615.982-.992 1.628l-.177.328c0 .02 1.015.671 2.257 1.444 1.871 1.168 2.269 1.398 2.321 1.34.074-.081 2.25-3.654 2.291-3.763.02-.052-.602-.467-2.233-1.487a164.306 164.306 0 0 0-2.279-1.412c-.01 0-.545.864-1.188 1.921zm6.788 4.201c-.213.318-.601.957-.979 1.602l-.192.354c-.013.048 3.996 2.614 4.209 2.694.028.012.103-.063.169-.163l.118-.183-.113-.08c-.544-.381-1.351-1.233-1.668-1.761-.652-1.084-.74-2.359-.257-3.725l.157-.448-.119-.092a.606.606 0 0 0-.14-.092l-.004-.002c-.015 0-.545.852-1.18 1.895zm-10.526 1.93c-.972 1.594-1.169 1.951-1.114 2.003.148.141 4.426 2.781 4.477 2.764.031-.01.579-.877 1.219-1.926.887-1.455 1.149-1.921 1.103-1.964.164.039-1.286-.88-2.742-1.791l-1.703-.993c-.036-.02-.508.705-1.239 1.907zm6.775 4.22c-.215.323-.605.966-.985 1.616l-.192.355c.003.039 4.047 2.572 4.144 2.596.048.012 2.388-3.636 2.431-3.791.013-.047-1.971-1.321-4.163-2.676-.033-.02-.515.719-1.235 1.9zM6.351 18.806c-.637 1.046-1.158 1.921-1.156 1.946.001.048 4.438 2.839 4.511 2.838.067-.001 2.368-3.798 2.342-3.863-.023-.061-4.422-2.825-4.495-2.825-.023.001-.564.857-1.201 1.904zm6.77 4.227c-.637 1.047-1.158 1.924-1.158 1.951 0 .049 3.977 2.559 4.054 2.559.041-.001 2.476-3.825 2.448-3.847-.324-.249-1.677-1.097-3.038-1.933l-1.109-.633c-.022 0-.56.857-1.197 1.904z" />
    </symbol>
    <symbol id="mob-menu-open" viewBox="0 0 48 32">
      <path d="M2.36.078c-.65.168-1.084.554-1.236 1.1a4.237 4.237 0 0 0 .005 1.671l-.005-.027c.106.38.49.824.868 1.002.268.126 1.734.138 21.848.156 24.138.024 22.116.074 22.676-.546.328-.362.444-.736.444-1.434 0-.696-.116-1.072-.442-1.432-.56-.62 1.456-.568-22.508-.56C12.234.012 2.492.044 2.36.078zm0 14c-.65.168-1.084.554-1.236 1.1a4.237 4.237 0 0 0 .005 1.671l-.005-.027c.106.38.49.824.868 1.002.268.126 1.734.138 21.848.156 24.138.024 22.116.074 22.676-.546.328-.362.444-.736.444-1.434 0-.696-.116-1.072-.442-1.432-.56-.62 1.456-.568-22.508-.56-11.776.004-21.518.036-21.65.07zm0 14c-.65.168-1.084.554-1.236 1.1a4.237 4.237 0 0 0 .005 1.671l-.005-.027c.106.38.49.824.868 1.002.268.126 1.734.138 21.848.156 24.138.024 22.116.074 22.676-.546.328-.362.444-.736.444-1.434 0-.696-.116-1.072-.442-1.432-.56-.62 1.456-.568-22.508-.56-11.776.004-21.518.036-21.65.07z"/>
    </symbol>
    <symbol id="vector" viewBox="0 0 27 32">
      <path fill="none" stroke="#fd9222" stroke-linecap="round" stroke-linejoin="round" stroke-width="2.743" d="M20.111 23.118 5.926 14.254m3.911-6.417 14.186 8.864M9.106 25.102l11.736-19.25m4.81 8.175c-3.04-1.899-4.234-3.384-2.278-6.592L13.748 1.42 2.012 20.67l14.186 8.864 9.454-15.507z" style="stroke:var(--color1, #fd9222)"/>
    </symbol>
    <symbol id="icon-3" viewBox="0 0 32 32">
      <path d="M16 32c8.837 0 16-7.163 16-16s-7.163-16-16-16c-8.837 0-16 7.163-16 16s7.163 16 16 16z"></path>
      <path d="M16.541 17.067c-0.071 0.071-0.155 0.128-0.248 0.167s-0.192 0.059-0.293 0.059-0.2-0.020-0.293-0.059c-0.093-0.039-0.177-0.095-0.248-0.167l-3.49-3.497c-0.071-0.071-0.155-0.128-0.248-0.167s-0.192-0.059-0.293-0.059c-0.101 0-0.2 0.020-0.293 0.059s-0.177 0.095-0.248 0.167c-0.142 0.143-0.222 0.336-0.222 0.537s0.080 0.394 0.222 0.537l3.497 3.497c0.429 0.428 1.009 0.668 1.615 0.668s1.187-0.24 1.615-0.668l3.497-3.497c0.141-0.142 0.22-0.334 0.221-0.533 0.001-0.1-0.019-0.2-0.057-0.292s-0.094-0.177-0.164-0.248c-0.071-0.071-0.155-0.128-0.248-0.167s-0.192-0.059-0.293-0.059-0.2 0.020-0.293 0.059c-0.093 0.039-0.177 0.095-0.248 0.167l-3.489 3.497z"></path>
    </symbol>
  </defs>
</svg>
